HIERARCHY
ROOT chen_peiyu:Solving:Hips
{
	OFFSET 0.000000 0.000000 0.000000
	CHANNELS 6 Xposition Yposition Zposition Xrotation Yrotation Zrotation
	JOINT chen_peiyu:Solving:Spine
	{
		OFFSET 0.000000 -11.210929 2.546455
		CHANNELS 6 Xposition Yposition Zposition Xrotation Yrotation Zrotation
		JOINT chen_peiyu:Solving:Spine1
		{
			OFFSET 0.000000 -8.581483 1.513147
			CHANNELS 6 Xposition Yposition Zposition Xrotation Yrotation Zrotation
			JOINT chen_peiyu:Solving:Spine2
			{
				OFFSET 0.000000 -8.680708 0.759466
				CHANNELS 6 Xposition Yposition Zposition Xrotation Yrotation Zrotation
				JOINT chen_peiyu:Solving:Spine3
				{
					OFFSET 0.000000 -8.713865 0.000000
					CHANNELS 6 Xposition Yposition Zposition Xrotation Yrotation Zrotation
					JOINT chen_peiyu:Solving:Neck
					{
						OFFSET 0.000000 -11.203541 -1.120352
						CHANNELS 6 Xposition Yposition Zposition Xrotation Yrotation Zrotation
						JOINT chen_peiyu:Solving:Neck1
						{
							OFFSET 0.000000 -7.996979 -0.699643
							CHANNELS 6 Xposition Yposition Zposition Xrotation Yrotation Zrotation
							JOINT chen_peiyu:Solving:Head
							{
								OFFSET 0.000000 -7.905571 -1.393964
								CHANNELS 6 Xposition Yposition Zposition Xrotation Yrotation Zrotation
								JOINT chen_peiyu:Solving:HeadEnd
								{
									OFFSET 0.000000 -9.728081 0.000003
									CHANNELS 6 Xposition Yposition Zposition Xrotation Yrotation Zrotation
									End Site
									{
										OFFSET 0.000000 -9.728081 0.000002
									}
								}
							}
						}
					}
					JOINT chen_peiyu:Solving:RightShoulder
					{
						OFFSET 0.000000 -8.002529 -5.397107
						CHANNELS 6 Xposition Yposition Zposition Xrotation Yrotation Zrotation
						JOINT chen_peiyu:Solving:RightArm
						{
							OFFSET -20.031555 -0.000008 0.000000
							CHANNELS 6 Xposition Yposition Zposition Xrotation Yrotation Zrotation
							JOINT chen_peiyu:Solving:RightForeArm
							{
								OFFSET -29.298958 -0.000008 0.000000
								CHANNELS 6 Xposition Yposition Zposition Xrotation Yrotation Zrotation
								JOINT chen_peiyu:Solving:RightHand
								{
									OFFSET -23.063095 -0.000008 0.000000
									CHANNELS 6 Xposition Yposition Zposition Xrotation Yrotation Zrotation
									JOINT chen_peiyu:Solving:RightHandThumb1
									{
										OFFSET -3.309830 2.925671 -2.461148
										CHANNELS 6 Xposition Yposition Zposition Xrotation Yrotation Zrotation
										End Site
										{
											OFFSET -4.885818 0.000000 -4.930992
										}
									}
									JOINT chen_peiyu:Solving:RightHandMiddle1
									{
										OFFSET -8.826195 -0.000004 0.056578
										CHANNELS 6 Xposition Yposition Zposition Xrotation Yrotation Zrotation
										End Site
										{
											OFFSET -6.941605 -0.000004 0.000000
										}
									}
								}
							}
						}
					}
					JOINT chen_peiyu:Solving:LeftShoulder
					{
						OFFSET 0.000000 -8.002529 -5.397107
						CHANNELS 6 Xposition Yposition Zposition Xrotation Yrotation Zrotation
						JOINT chen_peiyu:Solving:LeftArm
						{
							OFFSET 20.031555 -0.000008 0.000000
							CHANNELS 6 Xposition Yposition Zposition Xrotation Yrotation Zrotation
							JOINT chen_peiyu:Solving:LeftForeArm
							{
								OFFSET 29.298958 -0.000008 0.000000
								CHANNELS 6 Xposition Yposition Zposition Xrotation Yrotation Zrotation
								JOINT chen_peiyu:Solving:LeftHand
								{
									OFFSET 23.063095 -0.000008 0.000000
									CHANNELS 6 Xposition Yposition Zposition Xrotation Yrotation Zrotation
									JOINT chen_peiyu:Solving:LeftHandThumb1
									{
										OFFSET 3.309830 2.925671 -2.461148
										CHANNELS 6 Xposition Yposition Zposition Xrotation Yrotation Zrotation
										End Site
										{
											OFFSET 4.885818 0.000000 -4.930992
										}
									}
									JOINT chen_peiyu:Solving:LeftHandMiddle1
									{
										OFFSET 8.826195 -0.000004 0.056578
										CHANNELS 6 Xposition Yposition Zposition Xrotation Yrotation Zrotation
										End Site
										{
											OFFSET 6.941605 -0.000004 0.000000
										}
									}
								}
							}
						}
					}
				}
			}
		}
	}
	JOINT chen_peiyu:Solving:RightUpLeg
	{
		OFFSET -8.842906 0.000000 0.000000
		CHANNELS 6 Xposition Yposition Zposition Xrotation Yrotation Zrotation
		JOINT chen_peiyu:Solving:RightLeg
		{
			OFFSET 0.000000 42.445980 -0.000006
			CHANNELS 6 Xposition Yposition Zposition Xrotation Yrotation Zrotation
			JOINT chen_peiyu:Solving:RightFoot
			{
				OFFSET 0.000000 37.362904 -0.000006
				CHANNELS 6 Xposition Yposition Zposition Xrotation Yrotation Zrotation
				JOINT chen_peiyu:Solving:RightForeFoot
				{
					OFFSET 0.000000 3.537643 -0.000000
					CHANNELS 6 Xposition Yposition Zposition Xrotation Yrotation Zrotation
					JOINT chen_peiyu:Solving:RightToeBase
					{
						OFFSET 0.000000 0.000000 -13.854536
						CHANNELS 6 Xposition Yposition Zposition Xrotation Yrotation Zrotation
						JOINT chen_peiyu:Solving:RightToeBaseEnd
						{
							OFFSET 0.000000 0.000000 -3.949363
							CHANNELS 6 Xposition Yposition Zposition Xrotation Yrotation Zrotation
							End Site
							{
								OFFSET 0.000000 -3.949364 0.000000
							}
						}
					}
				}
			}
		}
	}
	JOINT chen_peiyu:Solving:LeftUpLeg
	{
		OFFSET 8.842906 0.000000 0.000000
		CHANNELS 6 Xposition Yposition Zposition Xrotation Yrotation Zrotation
		JOINT chen_peiyu:Solving:LeftLeg
		{
			OFFSET 0.000000 42.445980 -0.000006
			CHANNELS 6 Xposition Yposition Zposition Xrotation Yrotation Zrotation
			JOINT chen_peiyu:Solving:LeftFoot
			{
				OFFSET 0.000000 37.362904 -0.000006
				CHANNELS 6 Xposition Yposition Zposition Xrotation Yrotation Zrotation
				JOINT chen_peiyu:Solving:LeftForeFoot
				{
					OFFSET 0.000000 3.537643 -0.000000
					CHANNELS 6 Xposition Yposition Zposition Xrotation Yrotation Zrotation
					JOINT chen_peiyu:Solving:LeftToeBase
					{
						OFFSET 0.000000 0.000000 -13.854536
						CHANNELS 6 Xposition Yposition Zposition Xrotation Yrotation Zrotation
						JOINT chen_peiyu:Solving:LeftToeBaseEnd
						{
							OFFSET 0.000000 0.000000 -4.185185
							CHANNELS 6 Xposition Yposition Zposition Xrotation Yrotation Zrotation
							End Site
							{
								OFFSET 0.000000 -4.185188 0.000000
							}
						}
					}
				}
			}
		}
	}
}
MOTION
Frames: 6
Frame Time: 0.041667
-16.796944 -130.330429 -76.025040 99.968083 -0.901886 -0.212415 0.000002 -11.210930 2.546456 25.630486 1.896784 2.012531 0.000003 -8.581475 1.513148 20.337783 0.540581 0.526155 0.000004 -8.680729 0.759443 -0.891637 -0.170415 2.445798 -0.000001 -8.713881 -0.000004 -12.773613 -0.205531 -1.118175 -0.000000 -11.203571 -1.120334 -35.227541 -1.235381 6.170001 -0.000003 -7.996984 -0.699646 32.415101 2.047322 -8.266026 0.000003 -7.905596 -1.393957 8.561624 0.270649 -0.935460 0.000002 -9.728081 -0.000029 -0.000009 0.000000 -0.000001 -0.000001 -8.002552 -5.397099 -0.000000 -2.047756 7.381456 -20.031553 -0.000009 0.000011 -55.340139 10.067933 -90.925609 -29.298990 -0.000008 -0.000016 -59.978425 -8.881697 -14.959255 -23.063135 -0.000003 -0.000003 2.715553 -5.485296 26.389863 -3.309821 2.925666 -2.461168 0.000000 0.000003 0.000002 -8.826218 -0.000012 0.056568 0.000003 0.000002 -0.000000 -0.000003 -8.002556 -5.397107 -0.000008 -0.427434 -19.162611 20.031559 -0.000006 0.000028 -52.679794 -20.633568 101.076582 29.298977 -0.000008 0.000005 -51.325614 8.734971 10.743102 23.063068 -0.000003 -0.000000 -0.281484 14.119201 1.153761 3.309807 2.925658 -2.461149 -0.000006 0.000000 -0.000000 8.826194 0.000001 0.056577 0.000000 0.000000 -0.000001 -8.842905 0.000004 0.000003 -58.947244 10.769444 32.427877 0.000012 42.445992 -0.000005 61.918322 -0.000009 -0.000003 -0.000002 37.362885 -0.000019 11.628768 -10.067187 4.860049 0.000005 3.537643 -0.000017 0.000000 0.000002 0.000001 0.000001 0.000010 -13.854547 -20.724136 -0.000001 -0.000002 0.000001 -0.000000 -3.949364 -0.000000 -0.000005 -0.000000 8.842907 0.000001 -0.000005 -59.954998 -16.908179 -28.793649 -0.000013 42.445965 -0.000014 60.833203 0.000005 -0.000004 -0.000022 37.362907 -0.000004 2.470387 -8.332716 5.648878 -0.000006 3.537643 0.000003 -0.000000 0.000007 -0.000001 0.000005 -0.000002 -13.854564 4.847736 0.000002 0.000000 0.000003 -0.000008 -4.185187 0.000000 0.000001 0.000000 
-16.812180 -130.224670 -76.366348 99.897438 -0.677327 -0.176680 -0.000000 -11.210909 2.546429 25.652020 1.888144 2.027376 0.000001 -8.581482 1.513139 20.338951 0.530852 0.518034 -0.000001 -8.680709 0.759489 -1.229906 -0.320907 2.282945 0.000000 -8.713893 0.000006 -12.780062 -0.240415 -1.121408 -0.000002 -11.203539 -1.120363 -34.906665 -1.444662 6.418793 0.000000 -7.996985 -0.699630 32.456017 2.010464 -8.449143 -0.000005 -7.905564 -1.393953 8.477312 0.278008 -0.963420 -0.000001 -9.728073 0.000024 -0.000014 0.000000 -0.000000 -0.000001 -8.002510 -5.397136 0.000000 -2.132125 7.465674 -20.031555 -0.000002 0.000028 -54.980185 10.348654 -90.861166 -29.298975 -0.000002 -0.000013 -59.611357 -9.047230 -15.010486 -23.063095 -0.000014 -0.000004 2.630766 -5.212582 26.827624 -3.309837 2.925653 -2.461167 0.000001 0.000003 0.000001 -8.826231 -0.000010 0.056564 0.000002 0.000002 0.000002 -0.000004 -8.002514 -5.397129 0.000001 -0.225597 -18.928642 20.031563 -0.000002 0.000010 -52.477764 -20.570496 100.917534 29.298958 -0.000005 0.000010 -51.433841 8.641726 10.672220 23.063099 -0.000007 0.000004 -0.281597 14.222405 1.146034 3.309832 2.925665 -2.461155 0.000010 0.000005 -0.000006 8.826214 -0.000006 0.056581 0.000007 -0.000003 -0.000004 -8.842909 0.000019 -0.000051 -59.025081 10.856612 32.680645 0.000019 42.445969 -0.000013 61.555728 -0.000005 -0.000004 -0.000002 37.362900 -0.000025 13.284028 -11.231613 4.381249 0.000013 3.537643 -0.000028 0.000001 -0.000002 0.000001 0.000027 -0.000011 -13.854560 -20.251132 -0.000002 -0.000001 0.000010 0.000008 -3.949356 0.000001 -0.000000 -0.000001 8.842905 0.000021 0.000016 -59.313240 -17.017452 -28.723753 0.000005 42.445980 0.000002 60.065018 -0.000001 -0.000004 -0.000009 37.362907 -0.000000 2.688068 -8.437484 5.651311 -0.000002 3.537643 0.000009 -0.000001 0.000001 -0.000001 0.000017 -0.000005 -13.854524 4.995263 0.000003 0.000001 -0.000005 -0.000001 -4.185184 -0.000001 0.000001 -0.000001 
-16.825201 -130.104156 -76.711914 99.801215 -0.569842 -0.058644 0.000001 -11.210943 2.546462 25.529760 1.820768 1.930306 -0.000001 -8.581485 1.513132 20.368403 0.527627 0.346323 0.000001 -8.680713 0.759468 -1.107040 -0.309377 2.249243 0.000000 -8.713872 0.000008 -12.741782 -0.212313 -0.949866 0.000001 -11.203548 -1.120335 -35.112944 -1.434589 6.226298 0.000003 -7.996982 -0.699660 32.436743 1.938478 -8.382675 0.000001 -7.905563 -1.393936 8.542820 0.271799 -0.969595 -0.000003 -9.728081 0.000023 -0.000007 0.000000 -0.000000 0.000002 -8.002529 -5.397119 -0.000001 -2.149084 7.391811 -20.031551 0.000009 0.000006 -55.065631 10.287891 -90.856112 -29.299000 -0.000010 -0.000018 -59.863958 -8.964062 -15.024377 -23.063103 -0.000015 -0.000004 2.621526 -5.210253 26.756612 -3.309820 2.925663 -2.461155 -0.000001 0.000005 0.000004 -8.826200 -0.000014 0.056574 -0.000006 0.000004 0.000002 -0.000000 -8.002529 -5.397127 -0.000008 -0.356062 -19.076884 20.031565 -0.000002 0.000044 -52.493521 -20.676458 100.996771 29.298950 0.000000 0.000018 -51.702032 8.623087 10.750381 23.063080 -0.000003 0.000000 -0.301444 14.304341 1.219904 3.309816 2.925664 -2.461147 0.000004 0.000000 -0.000008 8.826205 0.000003 0.056575 0.000004 -0.000002 -0.000006 -8.842902 -0.000025 -0.000021 -59.081826 11.131049 33.058040 0.000009 42.445988 -0.000002 61.117243 0.000001 -0.000006 0.000014 37.362892 -0.000033 14.905716 -12.665788 3.882433 0.000006 3.537643 -0.000006 0.000002 0.000003 -0.000002 0.000018 0.000000 -13.854542 -19.926281 -0.000000 -0.000000 0.000018 -0.000000 -3.949357 -0.000001 -0.000001 -0.000000 8.842907 -0.000010 -0.000004 -58.603337 -16.946043 -28.550568 0.000022 42.445953 0.000002 59.272798 0.000002 -0.000001 -0.000009 37.362907 -0.000016 2.924001 -8.630849 5.727034 0.000006 3.537659 0.000006 0.000000 0.000011 -0.000003 0.000004 0.000013 -13.854503 5.062867 -0.000002 -0.000002 0.000021 -0.000008 -4.185170 -0.000000 0.000004 -0.000002 
-16.872795 -129.998520 -77.039841 99.731991 -0.339444 0.008658 0.000006 -11.210930 2.546459 25.507801 1.819060 1.908375 0.000002 -8.581476 1.513151 20.282998 0.515601 0.299581 0.000001 -8.680732 0.759451 -1.069981 -0.339915 2.224670 0.000006 -8.713871 0.000004 -12.699395 -0.215045 -0.897955 -0.000000 -11.203535 -1.120374 -35.165345 -1.369586 6.040640 0.000007 -7.996960 -0.699645 32.282404 1.834475 -8.230854 -0.000005 -7.905563 -1.393958 8.602850 0.263378 -0.979604 0.000001 -9.728081 0.000024 -0.000002 0.000000 -0.000000 -0.000001 -8.002529 -5.397120 0.000006 -2.164863 7.360324 -20.031561 -0.000008 -0.000009 -55.041312 10.293787 -90.946189 -29.298960 -0.000005 -0.000007 -59.822526 -9.012724 -15.077610 -23.063105 -0.000009 0.000000 2.605417 -5.203525 26.644302 -3.309797 2.925691 -2.461144 -0.000006 -0.000000 0.000002 -8.826183 0.000018 0.056580 -0.000005 0.000001 0.000005 -0.000004 -8.002529 -5.397120 0.000008 -0.531387 -19.110562 20.031569 -0.000010 0.000013 -52.485574 -20.756146 101.035928 29.298964 -0.000008 -0.000003 -52.036127 8.603991 10.853820 23.063093 0.000004 0.000000 -0.344133 14.335389 1.389605 3.309811 2.925686 -2.461161 0.000000 -0.000002 0.000005 8.826195 -0.000008 0.056580 -0.000002 -0.000006 -0.000000 -8.842905 0.000007 -0.000024 -59.154588 11.255167 33.318971 0.000008 42.446011 -0.000013 60.714200 -0.000002 -0.000000 -0.000009 37.362915 -0.000026 16.318594 -14.014891 3.471892 0.000001 3.537643 0.000019 -0.000001 0.000000 0.000001 -0.000005 0.000024 -13.854536 -19.218503 -0.000004 -0.000002 0.000008 -0.000001 -3.949368 -0.000001 -0.000001 -0.000001 8.842905 0.000006 -0.000017 -57.980984 -17.017328 -28.518521 0.000024 42.445938 -0.000011 58.471521 0.000005 -0.000009 -0.000005 37.362907 -0.000019 3.219147 -8.788726 5.774397 0.000010 3.537643 -0.000010 0.000001 0.000002 0.000001 -0.000007 0.000024 -13.854540 5.179581 0.000005 -0.000002 0.000006 -0.000000 -4.185197 0.000000 0.000003 -0.000000 
-16.952284 -129.895309 -77.358551 99.662466 -0.088246 0.108044 0.000001 -11.210918 2.546458 25.461333 1.826422 1.898093 0.000002 -8.581481 1.513177 20.229712 0.509354 0.282550 0.000002 -8.680719 0.759451 -1.060517 -0.407778 2.161173 0.000002 -8.713868 0.000008 -12.668202 -0.233311 -0.858212 0.000002 -11.203532 -1.120352 -35.154775 -1.281007 5.835369 -0.000003 -7.996964 -0.699656 32.125040 1.737627 -8.049964 0.000002 -7.905587 -1.393957 8.658533 0.253054 -0.984417 0.000000 -9.728065 0.000028 -0.000004 -0.000000 0.000000 0.000003 -8.002522 -5.397107 -0.000002 -2.206443 7.312156 -20.031557 -0.000003 -0.000012 -54.983392 10.222008 -90.981446 -29.299009 -0.000003 -0.000003 -59.964635 -9.013563 -15.161413 -23.063084 0.000007 0.000001 2.531958 -5.156126 26.198823 -3.309822 2.925683 -2.461145 -0.000003 -0.000005 -0.000001 -8.826209 -0.000011 0.056582 -0.000002 0.000002 0.000001 -0.000001 -8.002522 -5.397107 -0.000003 -0.674250 -19.158491 20.031559 0.000021 0.000015 -52.432698 -20.829017 101.068208 29.298954 -0.000004 -0.000009 -52.334866 8.590641 10.951966 23.063093 -0.000000 0.000006 -0.426165 14.483133 1.703513 3.309803 2.925663 -2.461149 -0.000004 -0.000007 -0.000006 8.826172 -0.000018 0.056577 -0.000001 -0.000001 -0.000010 -8.842904 0.000003 0.000018 -59.186533 11.352864 33.512866 0.000016 42.445980 -0.000017 60.317646 -0.000001 -0.000001 0.000011 37.362915 -0.000019 17.614667 -15.360406 3.286183 -0.000002 3.537651 0.000016 0.000001 0.000002 -0.000002 0.000004 0.000016 -13.854557 -18.495631 -0.000001 0.000001 -0.000002 -0.000000 -3.949366 -0.000001 -0.000001 0.000000 8.842907 -0.000014 -0.000019 -57.367298 -17.041126 -28.534963 -0.000014 42.445972 -0.000002 57.674951 0.000000 -0.000003 0.000002 37.362900 -0.000029 3.510442 -8.949468 5.840914 0.000007 3.537643 -0.000006 -0.000001 0.000001 -0.000000 -0.000018 0.000006 -13.854526 5.284253 0.000011 -0.000000 -0.000014 0.000007 -4.185201 -0.000001 0.000007 -0.000000 
-17.063997 -129.793686 -77.677353 99.611827 0.161488 0.251902 0.000002 -11.210937 2.546425 25.545068 1.826065 1.901612 -0.000004 -8.581504 1.513142 20.168637 0.501904 0.283881 0.000004 -8.680696 0.759459 -1.294881 -0.536149 2.004752 -0.000003 -8.713861 0.000035 -12.704451 -0.273075 -0.848449 0.000003 -11.203530 -1.120378 -35.062885 -1.204036 5.719039 -0.000003 -7.996950 -0.699653 32.201238 1.678821 -7.908685 0.000001 -7.905556 -1.393994 8.623925 0.246516 -0.961022 0.000003 -9.728073 0.000013 -0.000003 0.000000 -0.000000 0.000002 -8.002502 -5.397123 -0.000003 -2.240774 7.190041 -20.031555 -0.000009 -0.000021 -54.775033 10.188481 -90.951892 -29.298992 -0.000003 -0.000025 -59.786326 -9.097377 -15.190489 -23.063107 -0.000021 -0.000004 2.449145 -5.011084 26.089132 -3.309807 2.925662 -2.461157 -0.000002 -0.000007 0.000009 -8.826200 -0.000015 0.056559 -0.000001 -0.000003 0.000003 -0.000002 -8.002499 -5.397123 -0.000008 -0.694008 -19.048747 20.031563 -0.000011 -0.000042 -52.178404 -20.879277 101.045655 29.298939 -0.000003 0.000009 -52.392373 8.689289 11.096140 23.063095 0.000005 -0.000003 -0.440615 14.372574 1.774526 3.309822 2.925680 -2.461154 -0.000004 0.000005 -0.000010 8.826200 0.000004 0.056577 -0.000003 -0.000003 -0.000004 -8.842905 -0.000004 -0.000032 -59.230731 11.484825 33.642937 0.000000 42.445988 -0.000001 59.970550 -0.000007 -0.000006 0.000008 37.362907 -0.000039 18.787576 -16.594407 3.622906 0.000020 3.537644 -0.000017 0.000002 -0.000001 -0.000001 0.000012 0.000001 -13.854552 -17.787957 -0.000001 -0.000002 0.000002 0.000008 -3.949375 0.000000 0.000000 -0.000001 8.842909 0.000001 -0.000014 -56.773236 -16.989981 -28.580220 0.000007 42.445999 -0.000029 56.874220 -0.000001 -0.000003 0.000002 37.362888 -0.000024 3.807453 -9.122115 5.932673 0.000023 3.537651 0.000016 0.000001 -0.000004 0.000001 -0.000030 -0.000003 -13.854543 5.329875 -0.000010 0.000003 0.000010 0.000000 -4.185174 0.000000 -0.000000 -0.000001 
